<svg xmlns="http://www.w3.org/2000/svg" xmlns:xlink="http://www.w3.org/1999/xlink" width="164" zoomAndPan="magnify" viewBox="0 0 123 37.5" height="50" preserveAspectRatio="xMidYMid meet" version="1.0"><defs><g/><clipPath id="ac5fdd343a"><path d="M 0.808594 0.4375 L 26 0.4375 L 26 25 L 0.808594 25 Z M 0.808594 0.4375 " clip-rule="nonzero"/></clipPath><clipPath id="54c7275a66"><path d="M 24 24 L 37 24 L 37 36.703125 L 24 36.703125 Z M 24 24 " clip-rule="nonzero"/></clipPath></defs><g clip-path="url(#ac5fdd343a)"><path fill="#16123f" d="M 12.914062 24.84375 C 6.246094 24.84375 0.824219 19.367188 0.824219 12.636719 C 0.824219 5.910156 6.246094 0.433594 12.914062 0.433594 C 19.582031 0.433594 25.003906 5.910156 25.003906 12.636719 C 25.003906 19.367188 19.582031 24.84375 12.914062 24.84375 Z M 12.914062 2.441406 C 12.25 2.441406 11.59375 2.507812 10.941406 2.636719 C 10.292969 2.769531 9.660156 2.960938 9.046875 3.21875 C 8.433594 3.472656 7.851562 3.789062 7.300781 4.160156 C 6.75 4.53125 6.238281 4.953125 5.769531 5.429688 C 5.300781 5.902344 4.882812 6.417969 4.515625 6.972656 C 4.144531 7.53125 3.835938 8.117188 3.582031 8.734375 C 3.328125 9.355469 3.132812 9.992188 3.003906 10.648438 C 2.875 11.304688 2.8125 11.96875 2.8125 12.636719 C 2.8125 13.308594 2.875 13.972656 3.003906 14.628906 C 3.132812 15.285156 3.328125 15.921875 3.582031 16.539062 C 3.835938 17.160156 4.144531 17.746094 4.515625 18.304688 C 4.882812 18.859375 5.300781 19.375 5.769531 19.847656 C 6.238281 20.320312 6.75 20.746094 7.300781 21.117188 C 7.851562 21.488281 8.433594 21.800781 9.046875 22.058594 C 9.660156 22.316406 10.292969 22.507812 10.941406 22.640625 C 11.59375 22.769531 12.25 22.835938 12.914062 22.835938 C 13.578125 22.835938 14.234375 22.769531 14.886719 22.640625 C 15.535156 22.507812 16.167969 22.316406 16.78125 22.058594 C 17.394531 21.800781 17.976562 21.488281 18.527344 21.117188 C 19.078125 20.746094 19.589844 20.320312 20.058594 19.847656 C 20.527344 19.375 20.945312 18.859375 21.3125 18.304688 C 21.683594 17.746094 21.992188 17.160156 22.246094 16.539062 C 22.5 15.921875 22.695312 15.285156 22.824219 14.628906 C 22.953125 13.972656 23.015625 13.308594 23.015625 12.636719 C 23.015625 11.96875 22.949219 11.304688 22.820312 10.648438 C 22.691406 9.992188 22.5 9.355469 22.246094 8.738281 C 21.992188 8.121094 21.679688 7.53125 21.308594 6.976562 C 20.941406 6.421875 20.523438 5.90625 20.054688 5.433594 C 19.585938 4.960938 19.074219 4.535156 18.523438 4.164062 C 17.972656 3.792969 17.390625 3.480469 16.777344 3.222656 C 16.164062 2.964844 15.535156 2.773438 14.882812 2.640625 C 14.234375 2.511719 13.578125 2.445312 12.914062 2.441406 Z M 12.914062 2.441406 " fill-opacity="1" fill-rule="nonzero"/></g><path fill="#16123f" d="M 21.644531 26.160156 C 21.421875 26.160156 21.214844 26.097656 21.027344 25.972656 C 20.839844 25.847656 20.703125 25.679688 20.617188 25.46875 C 20.53125 25.261719 20.507812 25.042969 20.550781 24.820312 C 20.597656 24.597656 20.695312 24.40625 20.855469 24.246094 L 23.933594 21.113281 C 24.035156 21 24.15625 20.90625 24.292969 20.839844 C 24.433594 20.773438 24.578125 20.738281 24.730469 20.734375 C 24.886719 20.726562 25.03125 20.753906 25.175781 20.808594 C 25.320312 20.867188 25.445312 20.949219 25.554688 21.058594 C 25.664062 21.167969 25.746094 21.292969 25.804688 21.4375 C 25.859375 21.578125 25.886719 21.726562 25.882812 21.882812 C 25.878906 22.039062 25.847656 22.183594 25.78125 22.324219 C 25.71875 22.464844 25.628906 22.589844 25.515625 22.691406 L 22.4375 25.824219 C 22.21875 26.046875 21.957031 26.160156 21.644531 26.160156 Z M 21.644531 26.160156 " fill-opacity="1" fill-rule="nonzero"/><g clip-path="url(#54c7275a66)"><path fill="#16123f" d="M 35.007812 36.703125 C 34.472656 36.703125 34.015625 36.507812 33.640625 36.121094 L 25.449219 27.652344 C 25.273438 27.46875 25.136719 27.261719 25.042969 27.023438 C 24.949219 26.785156 24.902344 26.539062 24.90625 26.285156 C 24.910156 26.027344 24.960938 25.78125 25.058594 25.546875 C 25.160156 25.3125 25.300781 25.105469 25.480469 24.929688 C 25.660156 24.75 25.871094 24.613281 26.105469 24.515625 C 26.339844 24.421875 26.582031 24.375 26.835938 24.378906 C 27.089844 24.382812 27.332031 24.433594 27.566406 24.535156 C 27.796875 24.636719 28.003906 24.777344 28.179688 24.960938 L 36.375 33.429688 C 36.644531 33.707031 36.8125 34.035156 36.882812 34.414062 C 36.957031 34.796875 36.917969 35.164062 36.769531 35.523438 C 36.617188 35.878906 36.382812 36.164062 36.066406 36.378906 C 35.746094 36.59375 35.390625 36.703125 35.007812 36.703125 Z M 35.007812 36.703125 " fill-opacity="1" fill-rule="nonzero"/></g><path fill="#16123f" d="M 12.894531 21.234375 C 11.335938 21.234375 9.277344 20.785156 7.074219 19.074219 C 5.140625 17.570312 4.246094 15.261719 4.496094 12.394531 C 4.613281 11.070312 4.925781 9.789062 5.433594 8.5625 C 5.5 8.410156 5.609375 8.304688 5.765625 8.246094 C 5.917969 8.1875 6.070312 8.191406 6.21875 8.261719 C 6.371094 8.328125 6.472656 8.441406 6.53125 8.59375 C 6.589844 8.75 6.585938 8.902344 6.519531 9.054688 C 6.070312 10.167969 5.789062 11.328125 5.679688 12.527344 C 5.476562 14.984375 6.191406 16.863281 7.800781 18.117188 C 11.777344 21.207031 15.179688 19.609375 15.214844 19.59375 C 15.363281 19.515625 15.515625 19.503906 15.675781 19.558594 C 15.832031 19.613281 15.949219 19.714844 16.023438 19.867188 C 16.09375 20.019531 16.101562 20.175781 16.046875 20.332031 C 15.988281 20.492188 15.882812 20.605469 15.730469 20.675781 C 15.648438 20.722656 14.554688 21.234375 12.894531 21.234375 Z M 12.894531 21.234375 " fill-opacity="1" fill-rule="nonzero"/><g fill="#16123f" fill-opacity="1"><g transform="translate(8.425907, 12.769365)"><g><path d="M 1.792969 -7.289062 C 2.054688 -6.648438 2.1875 -5.484375 2.1875 -3.800781 C 2.1875 -2.878906 2.113281 -2.230469 1.976562 -1.859375 C 1.839844 -1.492188 1.558594 -1.304688 1.144531 -1.304688 C 0.871094 -1.304688 0.613281 -1.414062 0.363281 -1.632812 C 0.078125 -1.285156 -0.0664062 -0.984375 -0.0664062 -0.734375 C -0.0664062 -0.1875 0.390625 0.148438 1.203125 0.148438 C 2.09375 0.148438 2.75 -0.15625 3.199219 -0.710938 C 3.417969 -0.992188 3.59375 -1.359375 3.734375 -1.816406 C 3.996094 -2.722656 4.109375 -3.816406 4.109375 -5.355469 C 4.109375 -5.722656 4.109375 -5.984375 4.101562 -6.144531 C 4.085938 -6.71875 4.015625 -7.105469 3.886719 -7.300781 C 3.75 -7.511719 3.488281 -7.613281 3.101562 -7.613281 C 2.734375 -7.613281 2.296875 -7.503906 1.792969 -7.289062 Z M 1.792969 -7.289062 "/></g></g></g><g fill="#16123f" fill-opacity="1"><g transform="translate(13.209048, 12.769365)"><g><path d="M 1.792969 -7.289062 C 2.054688 -6.648438 2.1875 -5.484375 2.1875 -3.800781 C 2.1875 -2.878906 2.113281 -2.230469 1.976562 -1.859375 C 1.839844 -1.492188 1.558594 -1.304688 1.144531 -1.304688 C 0.871094 -1.304688 0.613281 -1.414062 0.363281 -1.632812 C 0.078125 -1.285156 -0.0664062 -0.984375 -0.0664062 -0.734375 C -0.0664062 -0.1875 0.390625 0.148438 1.203125 0.148438 C 2.09375 0.148438 2.75 -0.15625 3.199219 -0.710938 C 3.417969 -0.992188 3.59375 -1.359375 3.734375 -1.816406 C 3.996094 -2.722656 4.109375 -3.816406 4.109375 -5.355469 C 4.109375 -5.722656 4.109375 -5.984375 4.101562 -6.144531 C 4.085938 -6.71875 4.015625 -7.105469 3.886719 -7.300781 C 3.75 -7.511719 3.488281 -7.613281 3.101562 -7.613281 C 2.734375 -7.613281 2.296875 -7.503906 1.792969 -7.289062 Z M 1.792969 -7.289062 "/></g></g></g><g fill="#75c9b7" fill-opacity="1"><g transform="translate(37.830226, 30.437104)"><g><path d="M 10.332031 -1.609375 C 12.800781 -4.003906 13.398438 -7.1875 13.921875 -9.957031 L 14 -10.40625 C 14.558594 -13.175781 16.394531 -24.554688 16.46875 -25.039062 C 16.542969 -25.5625 16.207031 -26.050781 15.683594 -26.164062 C 15.160156 -26.238281 14.632812 -25.863281 14.558594 -25.339844 C 14.558594 -25.226562 12.652344 -13.511719 12.125 -10.78125 L 12.015625 -10.332031 C 11.527344 -7.671875 11.003906 -4.941406 8.984375 -2.996094 C 7.449219 -1.496094 2.882812 -0.488281 0 -3.292969 C -0.375 -3.667969 -0.972656 -3.667969 -1.347656 -3.292969 C -1.722656 -2.882812 -1.722656 -2.28125 -1.347656 -1.910156 C 0.375 -0.261719 2.546875 0.375 4.640625 0.375 C 6.960938 0.375 9.132812 -0.449219 10.332031 -1.609375 Z M 10.332031 -1.609375 "/></g></g></g><g fill="#75c9b7" fill-opacity="1"><g transform="translate(54.371109, 30.437104)"><g><path d="M 11.191406 -9.695312 C 11.078125 -10.929688 10.441406 -12.015625 9.394531 -12.574219 C 8.308594 -13.25 6.925781 -13.210938 5.578125 -12.574219 C 3.707031 -11.675781 1.460938 -9.320312 1.199219 -5.726562 C 1.085938 -3.890625 1.421875 -2.507812 2.28125 -1.609375 C 2.957031 -0.859375 3.929688 -0.488281 5.128906 -0.488281 C 6.289062 -0.488281 7.636719 -1.234375 8.796875 -2.46875 C 9.804688 -3.554688 11.453125 -5.949219 11.191406 -9.695312 Z M 7.410156 -3.707031 C 6.550781 -2.769531 5.613281 -2.359375 5.128906 -2.359375 C 4.453125 -2.359375 3.96875 -2.507812 3.628906 -2.882812 C 3.179688 -3.367188 2.957031 -4.304688 3.070312 -5.578125 C 3.21875 -8.234375 4.867188 -10.179688 6.363281 -10.890625 C 6.8125 -11.117188 7.222656 -11.230469 7.597656 -11.230469 C 7.933594 -11.230469 8.234375 -11.152344 8.496094 -11.003906 C 8.984375 -10.703125 9.28125 -10.179688 9.355469 -9.582031 C 9.582031 -6.511719 8.234375 -4.605469 7.410156 -3.707031 Z M 7.410156 -3.707031 "/></g></g></g><g fill="#75c9b7" fill-opacity="1"><g transform="translate(66.53352, 30.437104)"><g><path d="M 12.125 -9.171875 C 11.976562 -10.40625 11.378906 -11.339844 10.40625 -11.828125 C 9.355469 -12.351562 8.273438 -12.390625 7.222656 -11.941406 C 6.027344 -11.378906 4.976562 -10.179688 4.117188 -8.796875 L 6.773438 -24.589844 C 6.847656 -25.113281 6.511719 -25.601562 5.988281 -25.675781 C 5.503906 -25.75 5.015625 -25.414062 4.941406 -24.925781 L 0.898438 -0.898438 C 0.824219 -0.410156 1.121094 0.0390625 1.609375 0.148438 C 1.683594 0.148438 1.757812 0.1875 1.835938 0.1875 C 2.246094 0.1875 2.621094 -0.113281 2.695312 -0.523438 C 2.730469 -0.671875 2.769531 -0.824219 2.84375 -0.972656 C 3.21875 -0.5625 3.667969 -0.261719 4.191406 -0.113281 C 6.25 0.488281 8.457031 -1.199219 9.320312 -1.984375 C 11.152344 -3.628906 12.425781 -6.847656 12.125 -9.171875 Z M 8.085938 -3.332031 C 7.035156 -2.433594 5.613281 -1.609375 4.714844 -1.871094 C 4.265625 -2.019531 3.890625 -2.546875 3.628906 -3.40625 C 4.605469 -6.101562 6.175781 -9.433594 7.972656 -10.253906 C 8.535156 -10.480469 9.019531 -10.441406 9.542969 -10.179688 C 9.695312 -10.105469 10.179688 -9.882812 10.292969 -8.945312 C 10.515625 -7.261719 9.433594 -4.605469 8.085938 -3.332031 Z M 8.085938 -3.332031 "/></g></g></g><g fill="#75c9b7" fill-opacity="1"><g transform="translate(79.631508, 30.437104)"><g><path d="M 10.332031 -1.609375 C 12.800781 -4.003906 13.398438 -7.1875 13.921875 -9.957031 L 14 -10.40625 C 14.558594 -13.175781 16.394531 -24.554688 16.46875 -25.039062 C 16.542969 -25.5625 16.207031 -26.050781 15.683594 -26.164062 C 15.160156 -26.238281 14.632812 -25.863281 14.558594 -25.339844 C 14.558594 -25.226562 12.652344 -13.511719 12.125 -10.78125 L 12.015625 -10.332031 C 11.527344 -7.671875 11.003906 -4.941406 8.984375 -2.996094 C 7.449219 -1.496094 2.882812 -0.488281 0 -3.292969 C -0.375 -3.667969 -0.972656 -3.667969 -1.347656 -3.292969 C -1.722656 -2.882812 -1.722656 -2.28125 -1.347656 -1.910156 C 0.375 -0.261719 2.546875 0.375 4.640625 0.375 C 6.960938 0.375 9.132812 -0.449219 10.332031 -1.609375 Z M 10.332031 -1.609375 "/></g></g></g><g fill="#75c9b7" fill-opacity="1"><g transform="translate(96.172391, 30.437104)"><g><path d="M 11.191406 -9.695312 C 11.078125 -10.929688 10.441406 -12.015625 9.394531 -12.574219 C 8.308594 -13.25 6.925781 -13.210938 5.578125 -12.574219 C 3.707031 -11.675781 1.460938 -9.320312 1.199219 -5.726562 C 1.085938 -3.890625 1.421875 -2.507812 2.28125 -1.609375 C 2.957031 -0.859375 3.929688 -0.488281 5.128906 -0.488281 C 6.289062 -0.488281 7.636719 -1.234375 8.796875 -2.46875 C 9.804688 -3.554688 11.453125 -5.949219 11.191406 -9.695312 Z M 7.410156 -3.707031 C 6.550781 -2.769531 5.613281 -2.359375 5.128906 -2.359375 C 4.453125 -2.359375 3.96875 -2.507812 3.628906 -2.882812 C 3.179688 -3.367188 2.957031 -4.304688 3.070312 -5.578125 C 3.21875 -8.234375 4.867188 -10.179688 6.363281 -10.890625 C 6.8125 -11.117188 7.222656 -11.230469 7.597656 -11.230469 C 7.933594 -11.230469 8.234375 -11.152344 8.496094 -11.003906 C 8.984375 -10.703125 9.28125 -10.179688 9.355469 -9.582031 C 9.582031 -6.511719 8.234375 -4.605469 7.410156 -3.707031 Z M 7.410156 -3.707031 "/></g></g></g><g fill="#75c9b7" fill-opacity="1"><g transform="translate(108.334803, 30.437104)"><g><path d="M 10.742188 -12.988281 L 7.710938 -12.988281 L 9.84375 -25.039062 C 9.917969 -25.527344 9.582031 -26.011719 9.09375 -26.125 C 8.570312 -26.199219 8.085938 -25.863281 8.007812 -25.375 L 5.800781 -12.988281 L 2.320312 -12.988281 C 1.796875 -12.988281 1.386719 -12.574219 1.386719 -12.050781 C 1.386719 -11.527344 1.796875 -11.117188 2.320312 -11.117188 L 5.503906 -11.117188 L 3.78125 -1.386719 C 3.667969 -0.859375 4.003906 -0.410156 4.527344 -0.300781 C 4.566406 -0.300781 4.605469 -0.300781 4.679688 -0.300781 C 5.128906 -0.300781 5.503906 -0.597656 5.578125 -1.046875 L 7.375 -11.117188 L 10.742188 -11.117188 C 11.265625 -11.117188 11.675781 -11.527344 11.675781 -12.050781 C 11.675781 -12.574219 11.265625 -12.988281 10.742188 -12.988281 Z M 10.742188 -12.988281 "/></g></g></g></svg>