<svg xmlns="http://www.w3.org/2000/svg" xmlns:xlink="http://www.w3.org/1999/xlink" width="164" zoomAndPan="magnify" viewBox="0 0 123 37.5" height="50" preserveAspectRatio="xMidYMid meet" version="1.0"><defs><g/><clipPath id="d475079a83"><path d="M 0.808594 0.4375 L 26 0.4375 L 26 25 L 0.808594 25 Z M 0.808594 0.4375 " clip-rule="nonzero"/></clipPath><clipPath id="97b54db207"><path d="M 24 24 L 37 24 L 37 36.703125 L 24 36.703125 Z M 24 24 " clip-rule="nonzero"/></clipPath></defs><g clip-path="url(#d475079a83)"><path fill="#16123f" d="M 12.914062 24.84375 C 6.246094 24.84375 0.824219 19.367188 0.824219 12.636719 C 0.824219 5.910156 6.246094 0.433594 12.914062 0.433594 C 19.582031 0.433594 25.003906 5.910156 25.003906 12.636719 C 25.003906 19.367188 19.582031 24.84375 12.914062 24.84375 Z M 12.914062 2.441406 C 12.25 2.441406 11.59375 2.507812 10.941406 2.636719 C 10.292969 2.769531 9.660156 2.960938 9.046875 3.21875 C 8.433594 3.472656 7.851562 3.789062 7.300781 4.160156 C 6.75 4.53125 6.238281 4.953125 5.769531 5.429688 C 5.300781 5.902344 4.882812 6.417969 4.515625 6.972656 C 4.144531 7.53125 3.835938 8.117188 3.582031 8.734375 C 3.328125 9.355469 3.132812 9.992188 3.003906 10.648438 C 2.875 11.304688 2.8125 11.96875 2.8125 12.636719 C 2.8125 13.308594 2.875 13.972656 3.003906 14.628906 C 3.132812 15.285156 3.328125 15.921875 3.582031 16.539062 C 3.835938 17.160156 4.144531 17.746094 4.515625 18.304688 C 4.882812 18.859375 5.300781 19.375 5.769531 19.847656 C 6.238281 20.320312 6.75 20.746094 7.300781 21.117188 C 7.851562 21.488281 8.433594 21.800781 9.046875 22.058594 C 9.660156 22.316406 10.292969 22.507812 10.941406 22.640625 C 11.59375 22.769531 12.25 22.835938 12.914062 22.835938 C 13.578125 22.835938 14.234375 22.769531 14.886719 22.640625 C 15.535156 22.507812 16.167969 22.316406 16.78125 22.058594 C 17.394531 21.800781 17.976562 21.488281 18.527344 21.117188 C 19.078125 20.746094 19.589844 20.320312 20.058594 19.847656 C 20.527344 19.375 20.945312 18.859375 21.3125 18.304688 C 21.683594 17.746094 21.992188 17.160156 22.246094 16.539062 C 22.5 15.921875 22.695312 15.285156 22.824219 14.628906 C 22.953125 13.972656 23.015625 13.308594 23.015625 12.636719 C 23.015625 11.96875 22.949219 11.304688 22.820312 10.648438 C 22.691406 9.992188 22.5 9.355469 22.246094 8.738281 C 21.992188 8.121094 21.679688 7.53125 21.308594 6.976562 C 20.941406 6.421875 20.523438 5.90625 20.054688 5.433594 C 19.585938 4.960938 19.074219 4.535156 18.523438 4.164062 C 17.972656 3.792969 17.390625 3.480469 16.777344 3.222656 C 16.164062 2.964844 15.535156 2.773438 14.882812 2.640625 C 14.234375 2.511719 13.578125 2.445312 12.914062 2.441406 Z M 12.914062 2.441406 " fill-opacity="1" fill-rule="nonzero"/></g><path fill="#16123f" d="M 21.644531 26.160156 C 21.421875 26.160156 21.214844 26.097656 21.027344 25.972656 C 20.839844 25.847656 20.703125 25.679688 20.617188 25.46875 C 20.53125 25.261719 20.507812 25.042969 20.550781 24.820312 C 20.597656 24.597656 20.695312 24.40625 20.855469 24.246094 L 23.933594 21.113281 C 24.035156 21 24.15625 20.90625 24.292969 20.839844 C 24.433594 20.773438 24.578125 20.738281 24.730469 20.734375 C 24.886719 20.726562 25.03125 20.753906 25.175781 20.808594 C 25.320312 20.867188 25.445312 20.949219 25.554688 21.058594 C 25.664062 21.167969 25.746094 21.292969 25.804688 21.4375 C 25.859375 21.578125 25.886719 21.726562 25.882812 21.882812 C 25.878906 22.039062 25.847656 22.183594 25.78125 22.324219 C 25.71875 22.464844 25.628906 22.589844 25.515625 22.691406 L 22.4375 25.824219 C 22.21875 26.046875 21.957031 26.160156 21.644531 26.160156 Z M 21.644531 26.160156 " fill-opacity="1" fill-rule="nonzero"/><g clip-path="url(#97b54db207)"><path fill="#16123f" d="M 35.007812 36.703125 C 34.472656 36.703125 34.015625 36.507812 33.640625 36.121094 L 25.449219 27.652344 C 25.273438 27.46875 25.136719 27.261719 25.042969 27.023438 C 24.949219 26.785156 24.902344 26.539062 24.90625 26.285156 C 24.910156 26.027344 24.960938 25.78125 25.058594 25.546875 C 25.160156 25.3125 25.300781 25.105469 25.480469 24.929688 C 25.660156 24.75 25.871094 24.613281 26.105469 24.515625 C 26.339844 24.421875 26.582031 24.375 26.835938 24.378906 C 27.089844 24.382812 27.332031 24.433594 27.566406 24.535156 C 27.796875 24.636719 28.003906 24.777344 28.179688 24.960938 L 36.375 33.429688 C 36.644531 33.707031 36.8125 34.035156 36.882812 34.414062 C 36.957031 34.796875 36.917969 35.164062 36.769531 35.523438 C 36.617188 35.878906 36.382812 36.164062 36.066406 36.378906 C 35.746094 36.59375 35.390625 36.703125 35.007812 36.703125 Z M 35.007812 36.703125 " fill-opacity="1" fill-rule="nonzero"/></g><path fill="#16123f" d="M 12.894531 21.234375 C 11.335938 21.234375 9.277344 20.785156 7.074219 19.074219 C 5.140625 17.570312 4.246094 15.261719 4.496094 12.394531 C 4.613281 11.070312 4.925781 9.789062 5.433594 8.5625 C 5.5 8.410156 5.609375 8.304688 5.765625 8.246094 C 5.917969 8.1875 6.070312 8.191406 6.21875 8.261719 C 6.371094 8.328125 6.472656 8.441406 6.53125 8.59375 C 6.589844 8.75 6.585938 8.902344 6.519531 9.054688 C 6.070312 10.167969 5.789062 11.328125 5.679688 12.527344 C 5.476562 14.984375 6.191406 16.863281 7.800781 18.117188 C 11.777344 21.207031 15.179688 19.609375 15.214844 19.59375 C 15.363281 19.515625 15.515625 19.503906 15.675781 19.558594 C 15.832031 19.613281 15.949219 19.714844 16.023438 19.867188 C 16.09375 20.019531 16.101562 20.175781 16.046875 20.332031 C 15.988281 20.492188 15.882812 20.605469 15.730469 20.675781 C 15.648438 20.722656 14.554688 21.234375 12.894531 21.234375 Z M 12.894531 21.234375 " fill-opacity="1" fill-rule="nonzero"/><g fill="#16123f" fill-opacity="1"><g transform="translate(8.425907, 12.769365)"><g><path d="M 1.792969 -7.289062 C 2.054688 -6.648438 2.1875 -5.484375 2.1875 -3.800781 C 2.1875 -2.878906 2.113281 -2.230469 1.976562 -1.859375 C 1.839844 -1.492188 1.558594 -1.304688 1.144531 -1.304688 C 0.871094 -1.304688 0.613281 -1.414062 0.363281 -1.632812 C 0.078125 -1.285156 -0.0664062 -0.984375 -0.0664062 -0.734375 C -0.0664062 -0.1875 0.390625 0.148438 1.203125 0.148438 C 2.09375 0.148438 2.75 -0.15625 3.199219 -0.710938 C 3.417969 -0.992188 3.59375 -1.359375 3.734375 -1.816406 C 3.996094 -2.722656 4.109375 -3.816406 4.109375 -5.355469 C 4.109375 -5.722656 4.109375 -5.984375 4.101562 -6.144531 C 4.085938 -6.71875 4.015625 -7.105469 3.886719 -7.300781 C 3.75 -7.511719 3.488281 -7.613281 3.101562 -7.613281 C 2.734375 -7.613281 2.296875 -7.503906 1.792969 -7.289062 Z M 1.792969 -7.289062 "/></g></g></g><g fill="#16123f" fill-opacity="1"><g transform="translate(13.209048, 12.769365)"><g><path d="M 1.792969 -7.289062 C 2.054688 -6.648438 2.1875 -5.484375 2.1875 -3.800781 C 2.1875 -2.878906 2.113281 -2.230469 1.976562 -1.859375 C 1.839844 -1.492188 1.558594 -1.304688 1.144531 -1.304688 C 0.871094 -1.304688 0.613281 -1.414062 0.363281 -1.632812 C 0.078125 -1.285156 -0.0664062 -0.984375 -0.0664062 -0.734375 C -0.0664062 -0.1875 0.390625 0.148438 1.203125 0.148438 C 2.09375 0.148438 2.75 -0.15625 3.199219 -0.710938 C 3.417969 -0.992188 3.59375 -1.359375 3.734375 -1.816406 C 3.996094 -2.722656 4.109375 -3.816406 4.109375 -5.355469 C 4.109375 -5.722656 4.109375 -5.984375 4.101562 -6.144531 C 4.085938 -6.71875 4.015625 -7.105469 3.886719 -7.300781 C 3.75 -7.511719 3.488281 -7.613281 3.101562 -7.613281 C 2.734375 -7.613281 2.296875 -7.503906 1.792969 -7.289062 Z M 1.792969 -7.289062 "/></g></g></g><g fill="#75c9b7" fill-opacity="1"><g transform="translate(31.278212, 25.840135)"><g><path d="M 4.828125 -19.617188 C 5.527344 -17.894531 5.886719 -14.757812 5.886719 -10.222656 C 5.886719 -7.742188 5.691406 -6.003906 5.320312 -5.007812 C 4.949219 -4.011719 4.191406 -3.507812 3.078125 -3.507812 C 2.347656 -3.507812 1.648438 -3.804688 0.980469 -4.398438 C 0.207031 -3.460938 -0.179688 -2.644531 -0.179688 -1.976562 C -0.179688 -0.503906 1.054688 0.402344 3.238281 0.402344 C 5.632812 0.402344 7.402344 -0.417969 8.605469 -1.917969 C 9.199219 -2.675781 9.675781 -3.65625 10.046875 -4.890625 C 10.757812 -7.328125 11.054688 -10.269531 11.054688 -14.414062 C 11.054688 -15.394531 11.054688 -16.109375 11.042969 -16.539062 C 10.996094 -18.085938 10.804688 -19.125 10.460938 -19.644531 C 10.089844 -20.210938 9.390625 -20.492188 8.351562 -20.492188 C 7.355469 -20.492188 6.183594 -20.195312 4.828125 -19.617188 Z M 4.828125 -19.617188 "/></g></g></g><g fill="#75c9b7" fill-opacity="1"><g transform="translate(44.159711, 25.840135)"><g><path d="M 17.105469 -7.488281 C 17.105469 -11.636719 13.894531 -14.636719 9.332031 -14.636719 C 4.414062 -14.636719 0.921875 -11.398438 0.921875 -6.953125 C 0.921875 -2.675781 4.144531 0.34375 8.84375 0.34375 C 11.515625 0.34375 13.671875 -0.609375 15.308594 -2.527344 C 16.511719 -3.9375 17.105469 -5.601562 17.105469 -7.488281 Z M 5.453125 -7.058594 C 5.453125 -9.378906 6.925781 -10.90625 9.050781 -10.90625 C 11.191406 -10.90625 12.632812 -9.453125 12.632812 -7.207031 C 12.632812 -5.023438 11.070312 -3.449219 9.050781 -3.449219 C 6.894531 -3.449219 5.453125 -4.902344 5.453125 -7.058594 Z M 5.453125 -7.058594 "/></g></g></g><g fill="#75c9b7" fill-opacity="1"><g transform="translate(62.181925, 25.840135)"><g><path d="M 6.003906 -12.691406 C 6.09375 -14.339844 6.242188 -16.523438 6.300781 -17.59375 C 6.332031 -18.085938 6.34375 -18.414062 6.34375 -18.578125 C 6.34375 -20.242188 5.707031 -20.953125 4.21875 -20.953125 C 3.253906 -20.953125 2.199219 -20.671875 1.039062 -20.121094 C 1.695312 -18.679688 1.902344 -16.289062 1.902344 -12.320312 C 1.902344 -7.816406 1.753906 -4.207031 1.441406 -1.484375 C 3.300781 -0.371094 5.394531 0.179688 7.699219 0.179688 C 12.929688 0.179688 16.480469 -3.226562 16.480469 -8.097656 C 16.480469 -11.84375 13.941406 -14.414062 10.3125 -14.414062 C 8.679688 -14.414062 7.238281 -13.835938 6.003906 -12.691406 Z M 5.972656 -4.160156 C 5.929688 -4.621094 5.914062 -5.335938 5.914062 -6.285156 C 5.914062 -7.535156 5.960938 -8.769531 6.035156 -9.988281 C 6.96875 -10.566406 7.90625 -10.847656 8.84375 -10.847656 C 10.683594 -10.847656 11.949219 -9.511719 11.949219 -7.488281 C 11.949219 -5.15625 10.359375 -3.476562 8.21875 -3.476562 C 7.429688 -3.476562 6.671875 -3.699219 5.972656 -4.160156 Z M 5.972656 -4.160156 "/></g></g></g><g fill="#75c9b7" fill-opacity="1"><g transform="translate(79.580121, 25.840135)"><g><path d="M 4.828125 -19.617188 C 5.527344 -17.894531 5.886719 -14.757812 5.886719 -10.222656 C 5.886719 -7.742188 5.691406 -6.003906 5.320312 -5.007812 C 4.949219 -4.011719 4.191406 -3.507812 3.078125 -3.507812 C 2.347656 -3.507812 1.648438 -3.804688 0.980469 -4.398438 C 0.207031 -3.460938 -0.179688 -2.644531 -0.179688 -1.976562 C -0.179688 -0.503906 1.054688 0.402344 3.238281 0.402344 C 5.632812 0.402344 7.402344 -0.417969 8.605469 -1.917969 C 9.199219 -2.675781 9.675781 -3.65625 10.046875 -4.890625 C 10.757812 -7.328125 11.054688 -10.269531 11.054688 -14.414062 C 11.054688 -15.394531 11.054688 -16.109375 11.042969 -16.539062 C 10.996094 -18.085938 10.804688 -19.125 10.460938 -19.644531 C 10.089844 -20.210938 9.390625 -20.492188 8.351562 -20.492188 C 7.355469 -20.492188 6.183594 -20.195312 4.828125 -19.617188 Z M 4.828125 -19.617188 "/></g></g></g><g fill="#75c9b7" fill-opacity="1"><g transform="translate(92.461621, 25.840135)"><g><path d="M 17.105469 -7.488281 C 17.105469 -11.636719 13.894531 -14.636719 9.332031 -14.636719 C 4.414062 -14.636719 0.921875 -11.398438 0.921875 -6.953125 C 0.921875 -2.675781 4.144531 0.34375 8.84375 0.34375 C 11.515625 0.34375 13.671875 -0.609375 15.308594 -2.527344 C 16.511719 -3.9375 17.105469 -5.601562 17.105469 -7.488281 Z M 5.453125 -7.058594 C 5.453125 -9.378906 6.925781 -10.90625 9.050781 -10.90625 C 11.191406 -10.90625 12.632812 -9.453125 12.632812 -7.207031 C 12.632812 -5.023438 11.070312 -3.449219 9.050781 -3.449219 C 6.894531 -3.449219 5.453125 -4.902344 5.453125 -7.058594 Z M 5.453125 -7.058594 "/></g></g></g><g fill="#75c9b7" fill-opacity="1"><g transform="translate(110.483835, 25.840135)"><g><path d="M 7.179688 -13.703125 C 7.3125 -15.320312 7.386719 -16.214844 7.386719 -16.363281 C 7.386719 -17.730469 6.746094 -18.351562 5.363281 -18.351562 C 4.457031 -18.351562 3.449219 -18.085938 2.304688 -17.535156 C 2.703125 -16.75 2.898438 -15.679688 2.898438 -14.355469 C 2.898438 -14.28125 2.898438 -14.148438 2.882812 -13.953125 C 2.867188 -13.761719 2.867188 -13.628906 2.867188 -13.523438 C 2.289062 -13.480469 1.902344 -13.464844 1.695312 -13.464844 C 1.261719 -13.464844 0.890625 -13.492188 0.578125 -13.554688 C 0.238281 -12.824219 0.0585938 -12.230469 0.0585938 -11.769531 C 0.0585938 -10.953125 0.503906 -10.65625 1.515625 -10.65625 C 1.859375 -10.65625 2.242188 -10.683594 2.703125 -10.746094 C 2.675781 -9.914062 2.617188 -8.796875 2.511719 -7.414062 C 2.40625 -6.019531 2.347656 -5.050781 2.347656 -4.503906 C 2.347656 -1.367188 3.761719 0.148438 6.6875 0.148438 C 8.992188 0.148438 10.3125 -0.699219 10.3125 -2.007812 C 10.3125 -2.527344 10.105469 -3.0625 9.675781 -3.609375 C 9.289062 -3.3125 8.902344 -3.164062 8.5 -3.164062 C 7.355469 -3.164062 6.777344 -4.21875 6.777344 -6.34375 C 6.777344 -7.460938 6.851562 -8.960938 7 -10.847656 C 7.5625 -10.863281 8.632812 -10.9375 8.753906 -10.9375 C 9.453125 -10.9375 10 -10.863281 10.386719 -10.714844 C 10.90625 -11.503906 11.175781 -12.1875 11.175781 -12.78125 C 11.175781 -13.566406 10.789062 -13.867188 9.851562 -13.867188 C 9.628906 -13.867188 8.929688 -13.820312 8.335938 -13.777344 C 7.9375 -13.746094 7.550781 -13.714844 7.179688 -13.703125 Z M 7.179688 -13.703125 "/></g></g></g></svg>