<svg xmlns="http://www.w3.org/2000/svg" xmlns:xlink="http://www.w3.org/1999/xlink" width="164" zoomAndPan="magnify" viewBox="0 0 123 37.5" height="50" preserveAspectRatio="xMidYMid meet" version="1.0"><defs><g/><clipPath id="b85630d921"><path d="M 0.808594 0.4375 L 26 0.4375 L 26 25 L 0.808594 25 Z M 0.808594 0.4375 " clip-rule="nonzero"/></clipPath><clipPath id="699bee1ef0"><path d="M 24 24 L 37 24 L 37 36.703125 L 24 36.703125 Z M 24 24 " clip-rule="nonzero"/></clipPath></defs><g clip-path="url(#b85630d921)"><path fill="#16123f" d="M 12.914062 24.84375 C 6.246094 24.84375 0.824219 19.367188 0.824219 12.636719 C 0.824219 5.910156 6.246094 0.433594 12.914062 0.433594 C 19.582031 0.433594 25.003906 5.910156 25.003906 12.636719 C 25.003906 19.367188 19.582031 24.84375 12.914062 24.84375 Z M 12.914062 2.441406 C 12.25 2.441406 11.59375 2.507812 10.941406 2.636719 C 10.292969 2.769531 9.660156 2.960938 9.046875 3.21875 C 8.433594 3.472656 7.851562 3.789062 7.300781 4.160156 C 6.75 4.53125 6.238281 4.953125 5.769531 5.429688 C 5.300781 5.902344 4.882812 6.417969 4.515625 6.972656 C 4.144531 7.53125 3.835938 8.117188 3.582031 8.734375 C 3.328125 9.355469 3.132812 9.992188 3.003906 10.648438 C 2.875 11.304688 2.8125 11.96875 2.8125 12.636719 C 2.8125 13.308594 2.875 13.972656 3.003906 14.628906 C 3.132812 15.285156 3.328125 15.921875 3.582031 16.539062 C 3.835938 17.160156 4.144531 17.746094 4.515625 18.304688 C 4.882812 18.859375 5.300781 19.375 5.769531 19.847656 C 6.238281 20.320312 6.75 20.746094 7.300781 21.117188 C 7.851562 21.488281 8.433594 21.800781 9.046875 22.058594 C 9.660156 22.316406 10.292969 22.507812 10.941406 22.640625 C 11.59375 22.769531 12.25 22.835938 12.914062 22.835938 C 13.578125 22.835938 14.234375 22.769531 14.886719 22.640625 C 15.535156 22.507812 16.167969 22.316406 16.78125 22.058594 C 17.394531 21.800781 17.976562 21.488281 18.527344 21.117188 C 19.078125 20.746094 19.589844 20.320312 20.058594 19.847656 C 20.527344 19.375 20.945312 18.859375 21.3125 18.304688 C 21.683594 17.746094 21.992188 17.160156 22.246094 16.539062 C 22.5 15.921875 22.695312 15.285156 22.824219 14.628906 C 22.953125 13.972656 23.015625 13.308594 23.015625 12.636719 C 23.015625 11.96875 22.949219 11.304688 22.820312 10.648438 C 22.691406 9.992188 22.5 9.355469 22.246094 8.738281 C 21.992188 8.121094 21.679688 7.53125 21.308594 6.976562 C 20.941406 6.421875 20.523438 5.90625 20.054688 5.433594 C 19.585938 4.960938 19.074219 4.535156 18.523438 4.164062 C 17.972656 3.792969 17.390625 3.480469 16.777344 3.222656 C 16.164062 2.964844 15.535156 2.773438 14.882812 2.640625 C 14.234375 2.511719 13.578125 2.445312 12.914062 2.441406 Z M 12.914062 2.441406 " fill-opacity="1" fill-rule="nonzero"/></g><path fill="#16123f" d="M 21.644531 26.160156 C 21.421875 26.160156 21.214844 26.097656 21.027344 25.972656 C 20.839844 25.847656 20.703125 25.679688 20.617188 25.46875 C 20.53125 25.261719 20.507812 25.042969 20.550781 24.820312 C 20.597656 24.597656 20.695312 24.40625 20.855469 24.246094 L 23.933594 21.113281 C 24.035156 21 24.15625 20.90625 24.292969 20.839844 C 24.433594 20.773438 24.578125 20.738281 24.730469 20.734375 C 24.886719 20.726562 25.03125 20.753906 25.175781 20.808594 C 25.320312 20.867188 25.445312 20.949219 25.554688 21.058594 C 25.664062 21.167969 25.746094 21.292969 25.804688 21.4375 C 25.859375 21.578125 25.886719 21.726562 25.882812 21.882812 C 25.878906 22.039062 25.847656 22.183594 25.78125 22.324219 C 25.71875 22.464844 25.628906 22.589844 25.515625 22.691406 L 22.4375 25.824219 C 22.21875 26.046875 21.957031 26.160156 21.644531 26.160156 Z M 21.644531 26.160156 " fill-opacity="1" fill-rule="nonzero"/><g clip-path="url(#699bee1ef0)"><path fill="#16123f" d="M 35.007812 36.703125 C 34.472656 36.703125 34.015625 36.507812 33.640625 36.121094 L 25.449219 27.652344 C 25.273438 27.46875 25.136719 27.261719 25.042969 27.023438 C 24.949219 26.785156 24.902344 26.539062 24.90625 26.285156 C 24.910156 26.027344 24.960938 25.78125 25.058594 25.546875 C 25.160156 25.3125 25.300781 25.105469 25.480469 24.929688 C 25.660156 24.75 25.871094 24.613281 26.105469 24.515625 C 26.339844 24.421875 26.582031 24.375 26.835938 24.378906 C 27.089844 24.382812 27.332031 24.433594 27.566406 24.535156 C 27.796875 24.636719 28.003906 24.777344 28.179688 24.960938 L 36.375 33.429688 C 36.644531 33.707031 36.8125 34.035156 36.882812 34.414062 C 36.957031 34.796875 36.917969 35.164062 36.769531 35.523438 C 36.617188 35.878906 36.382812 36.164062 36.066406 36.378906 C 35.746094 36.59375 35.390625 36.703125 35.007812 36.703125 Z M 35.007812 36.703125 " fill-opacity="1" fill-rule="nonzero"/></g><path fill="#16123f" d="M 12.894531 21.234375 C 11.335938 21.234375 9.277344 20.785156 7.074219 19.074219 C 5.140625 17.570312 4.246094 15.261719 4.496094 12.394531 C 4.613281 11.070312 4.925781 9.789062 5.433594 8.5625 C 5.5 8.410156 5.609375 8.304688 5.765625 8.246094 C 5.917969 8.1875 6.070312 8.191406 6.21875 8.261719 C 6.371094 8.328125 6.472656 8.441406 6.53125 8.59375 C 6.589844 8.75 6.585938 8.902344 6.519531 9.054688 C 6.070312 10.167969 5.789062 11.328125 5.679688 12.527344 C 5.476562 14.984375 6.191406 16.863281 7.800781 18.117188 C 11.777344 21.207031 15.179688 19.609375 15.214844 19.59375 C 15.363281 19.515625 15.515625 19.503906 15.675781 19.558594 C 15.832031 19.613281 15.949219 19.714844 16.023438 19.867188 C 16.09375 20.019531 16.101562 20.175781 16.046875 20.332031 C 15.988281 20.492188 15.882812 20.605469 15.730469 20.675781 C 15.648438 20.722656 14.554688 21.234375 12.894531 21.234375 Z M 12.894531 21.234375 " fill-opacity="1" fill-rule="nonzero"/><g fill="#16123f" fill-opacity="1"><g transform="translate(8.425907, 12.769365)"><g><path d="M 1.792969 -7.289062 C 2.054688 -6.648438 2.1875 -5.484375 2.1875 -3.800781 C 2.1875 -2.878906 2.113281 -2.230469 1.976562 -1.859375 C 1.839844 -1.492188 1.558594 -1.304688 1.144531 -1.304688 C 0.871094 -1.304688 0.613281 -1.414062 0.363281 -1.632812 C 0.078125 -1.285156 -0.0664062 -0.984375 -0.0664062 -0.734375 C -0.0664062 -0.1875 0.390625 0.148438 1.203125 0.148438 C 2.09375 0.148438 2.75 -0.15625 3.199219 -0.710938 C 3.417969 -0.992188 3.59375 -1.359375 3.734375 -1.816406 C 3.996094 -2.722656 4.109375 -3.816406 4.109375 -5.355469 C 4.109375 -5.722656 4.109375 -5.984375 4.101562 -6.144531 C 4.085938 -6.71875 4.015625 -7.105469 3.886719 -7.300781 C 3.75 -7.511719 3.488281 -7.613281 3.101562 -7.613281 C 2.734375 -7.613281 2.296875 -7.503906 1.792969 -7.289062 Z M 1.792969 -7.289062 "/></g></g></g><g fill="#16123f" fill-opacity="1"><g transform="translate(13.209048, 12.769365)"><g><path d="M 1.792969 -7.289062 C 2.054688 -6.648438 2.1875 -5.484375 2.1875 -3.800781 C 2.1875 -2.878906 2.113281 -2.230469 1.976562 -1.859375 C 1.839844 -1.492188 1.558594 -1.304688 1.144531 -1.304688 C 0.871094 -1.304688 0.613281 -1.414062 0.363281 -1.632812 C 0.078125 -1.285156 -0.0664062 -0.984375 -0.0664062 -0.734375 C -0.0664062 -0.1875 0.390625 0.148438 1.203125 0.148438 C 2.09375 0.148438 2.75 -0.15625 3.199219 -0.710938 C 3.417969 -0.992188 3.59375 -1.359375 3.734375 -1.816406 C 3.996094 -2.722656 4.109375 -3.816406 4.109375 -5.355469 C 4.109375 -5.722656 4.109375 -5.984375 4.101562 -6.144531 C 4.085938 -6.71875 4.015625 -7.105469 3.886719 -7.300781 C 3.75 -7.511719 3.488281 -7.613281 3.101562 -7.613281 C 2.734375 -7.613281 2.296875 -7.503906 1.792969 -7.289062 Z M 1.792969 -7.289062 "/></g></g></g><g fill="#75c9b7" fill-opacity="1"><g transform="translate(40.989659, 31.719996)"><g><path d="M 10.054688 -1.566406 C 12.460938 -3.898438 13.042969 -6.996094 13.554688 -9.691406 L 13.628906 -10.128906 C 14.175781 -12.824219 15.960938 -23.902344 16.03125 -24.375 C 16.105469 -24.886719 15.777344 -25.359375 15.265625 -25.46875 C 14.757812 -25.542969 14.246094 -25.179688 14.175781 -24.667969 C 14.175781 -24.558594 12.316406 -13.152344 11.804688 -10.492188 L 11.695312 -10.054688 C 11.222656 -7.46875 10.710938 -4.808594 8.746094 -2.914062 C 7.25 -1.457031 2.804688 -0.472656 0 -3.207031 C -0.363281 -3.570312 -0.949219 -3.570312 -1.3125 -3.207031 C -1.675781 -2.804688 -1.675781 -2.222656 -1.3125 -1.859375 C 0.363281 -0.253906 2.476562 0.363281 4.519531 0.363281 C 6.777344 0.363281 8.890625 -0.4375 10.054688 -1.566406 Z M 10.054688 -1.566406 "/></g></g></g><g fill="#75c9b7" fill-opacity="1"><g transform="translate(57.090953, 31.719996)"><g><path d="M 10.894531 -9.4375 C 10.785156 -10.640625 10.164062 -11.695312 9.144531 -12.242188 C 8.089844 -12.898438 6.742188 -12.863281 5.429688 -12.242188 C 3.605469 -11.367188 1.421875 -9.074219 1.164062 -5.574219 C 1.058594 -3.789062 1.382812 -2.441406 2.222656 -1.566406 C 2.878906 -0.839844 3.824219 -0.472656 4.992188 -0.472656 C 6.121094 -0.472656 7.433594 -1.203125 8.5625 -2.40625 C 9.546875 -3.460938 11.148438 -5.792969 10.894531 -9.4375 Z M 7.214844 -3.605469 C 6.375 -2.695312 5.464844 -2.296875 4.992188 -2.296875 C 4.335938 -2.296875 3.863281 -2.441406 3.535156 -2.804688 C 3.097656 -3.28125 2.878906 -4.191406 2.988281 -5.429688 C 3.132812 -8.015625 4.738281 -9.910156 6.195312 -10.601562 C 6.632812 -10.820312 7.03125 -10.929688 7.398438 -10.929688 C 7.722656 -10.929688 8.015625 -10.859375 8.269531 -10.710938 C 8.746094 -10.421875 9.035156 -9.910156 9.109375 -9.328125 C 9.328125 -6.339844 8.015625 -4.480469 7.214844 -3.605469 Z M 7.214844 -3.605469 "/></g></g></g><g fill="#75c9b7" fill-opacity="1"><g transform="translate(68.930144, 31.719996)"><g><path d="M 11.804688 -8.925781 C 11.660156 -10.128906 11.078125 -11.039062 10.128906 -11.515625 C 9.109375 -12.023438 8.050781 -12.058594 7.03125 -11.625 C 5.867188 -11.078125 4.847656 -9.910156 4.007812 -8.5625 L 6.59375 -23.9375 C 6.667969 -24.449219 6.339844 -24.921875 5.828125 -24.996094 C 5.355469 -25.070312 4.882812 -24.742188 4.808594 -24.265625 L 0.875 -0.875 C 0.800781 -0.402344 1.09375 0.0351562 1.566406 0.144531 C 1.640625 0.144531 1.710938 0.183594 1.785156 0.183594 C 2.1875 0.183594 2.550781 -0.109375 2.625 -0.511719 C 2.660156 -0.65625 2.695312 -0.800781 2.769531 -0.949219 C 3.132812 -0.546875 3.570312 -0.253906 4.082031 -0.109375 C 6.085938 0.472656 8.234375 -1.164062 9.074219 -1.929688 C 10.859375 -3.535156 12.097656 -6.667969 11.804688 -8.925781 Z M 7.871094 -3.242188 C 6.851562 -2.367188 5.464844 -1.566406 4.589844 -1.820312 C 4.152344 -1.96875 3.789062 -2.476562 3.535156 -3.316406 C 4.480469 -5.9375 6.011719 -9.183594 7.761719 -9.984375 C 8.308594 -10.203125 8.78125 -10.164062 9.292969 -9.910156 C 9.4375 -9.839844 9.910156 -9.621094 10.019531 -8.707031 C 10.238281 -7.070312 9.183594 -4.480469 7.871094 -3.242188 Z M 7.871094 -3.242188 "/></g></g></g><g fill="#75c9b7" fill-opacity="1"><g transform="translate(81.680044, 31.719996)"><g><path d="M 10.054688 -1.566406 C 12.460938 -3.898438 13.042969 -6.996094 13.554688 -9.691406 L 13.628906 -10.128906 C 14.175781 -12.824219 15.960938 -23.902344 16.03125 -24.375 C 16.105469 -24.886719 15.777344 -25.359375 15.265625 -25.46875 C 14.757812 -25.542969 14.246094 -25.179688 14.175781 -24.667969 C 14.175781 -24.558594 12.316406 -13.152344 11.804688 -10.492188 L 11.695312 -10.054688 C 11.222656 -7.46875 10.710938 -4.808594 8.746094 -2.914062 C 7.25 -1.457031 2.804688 -0.472656 0 -3.207031 C -0.363281 -3.570312 -0.949219 -3.570312 -1.3125 -3.207031 C -1.675781 -2.804688 -1.675781 -2.222656 -1.3125 -1.859375 C 0.363281 -0.253906 2.476562 0.363281 4.519531 0.363281 C 6.777344 0.363281 8.890625 -0.4375 10.054688 -1.566406 Z M 10.054688 -1.566406 "/></g></g></g><g fill="#75c9b7" fill-opacity="1"><g transform="translate(97.781339, 31.719996)"><g><path d="M 10.894531 -9.4375 C 10.785156 -10.640625 10.164062 -11.695312 9.144531 -12.242188 C 8.089844 -12.898438 6.742188 -12.863281 5.429688 -12.242188 C 3.605469 -11.367188 1.421875 -9.074219 1.164062 -5.574219 C 1.058594 -3.789062 1.382812 -2.441406 2.222656 -1.566406 C 2.878906 -0.839844 3.824219 -0.472656 4.992188 -0.472656 C 6.121094 -0.472656 7.433594 -1.203125 8.5625 -2.40625 C 9.546875 -3.460938 11.148438 -5.792969 10.894531 -9.4375 Z M 7.214844 -3.605469 C 6.375 -2.695312 5.464844 -2.296875 4.992188 -2.296875 C 4.335938 -2.296875 3.863281 -2.441406 3.535156 -2.804688 C 3.097656 -3.28125 2.878906 -4.191406 2.988281 -5.429688 C 3.132812 -8.015625 4.738281 -9.910156 6.195312 -10.601562 C 6.632812 -10.820312 7.03125 -10.929688 7.398438 -10.929688 C 7.722656 -10.929688 8.015625 -10.859375 8.269531 -10.710938 C 8.746094 -10.421875 9.035156 -9.910156 9.109375 -9.328125 C 9.328125 -6.339844 8.015625 -4.480469 7.214844 -3.605469 Z M 7.214844 -3.605469 "/></g></g></g><g fill="#75c9b7" fill-opacity="1"><g transform="translate(109.62053, 31.719996)"><g><path d="M 10.457031 -12.644531 L 7.507812 -12.644531 L 9.582031 -24.375 C 9.65625 -24.851562 9.328125 -25.324219 8.855469 -25.433594 C 8.34375 -25.503906 7.871094 -25.179688 7.796875 -24.703125 L 5.648438 -12.644531 L 2.257812 -12.644531 C 1.75 -12.644531 1.347656 -12.242188 1.347656 -11.734375 C 1.347656 -11.222656 1.75 -10.820312 2.257812 -10.820312 L 5.355469 -10.820312 L 3.679688 -1.347656 C 3.570312 -0.839844 3.898438 -0.402344 4.410156 -0.292969 C 4.445312 -0.292969 4.480469 -0.292969 4.554688 -0.292969 C 4.992188 -0.292969 5.355469 -0.582031 5.429688 -1.019531 L 7.179688 -10.820312 L 10.457031 -10.820312 C 10.96875 -10.820312 11.367188 -11.222656 11.367188 -11.734375 C 11.367188 -12.242188 10.96875 -12.644531 10.457031 -12.644531 Z M 10.457031 -12.644531 "/></g></g></g></svg>